<svg width="15" height="15" viewBox="0 0 15 15" fill="none" xmlns="http://www.w3.org/2000/svg">
<path d="M9.84106 4.64741V13.3052L11.9235 12.3638V3.706L9.84106 2.89307V4.64741Z" fill="white"/>
<path d="M12.437 5.28906V12.135L14.5194 11.1936V6.102L12.437 5.28906Z" fill="white"/>
<path d="M0 3.33523V5.21783L1.31221 5.81765L0 6.31607V8.19866L1.31221 8.79762L0 9.31129V11.2083L7.2453 14.4886L9.3277 13.5472V1.32417L7.2453 0.51123L0 3.33523Z" fill="white"/>
<path d="M9.84119 13.3047L11.9236 12.3639V3.70605L9.84119 4.64746V13.3047Z" fill="#B5B6C0"/>
<path d="M12.4375 12.1353L14.5199 11.1939V6.10229L12.4375 7.0437V12.1353Z" fill="#B5B6C0"/>
<path d="M7.24532 2.26562V6.6156L0 3.33529V5.21789L7.24532 8.51259V9.59665L0 6.31612V8.19893L7.24532 11.5074V12.5914L0 9.31135V11.2083L7.24532 14.4887L9.32772 13.5472V1.32422L7.24532 2.26562Z" fill="#B5B6C0"/>
</svg>
