<svg width="16" height="14" viewBox="0 0 16 14" fill="none" xmlns="http://www.w3.org/2000/svg">
<g id="Logo / Redis">
<g id="Vector">
<path d="M15.3727 10.7853C14.5203 11.2401 10.0966 13.096 9.14364 13.6055C8.1907 14.1149 7.68035 14.1004 6.93505 13.737C6.18974 13.3736 1.49826 11.4274 0.648044 11.0127C0.219658 10.8076 0.00109388 10.6326 0.00109388 10.4687V8.81788C0.00109388 8.81788 6.12964 7.46131 7.11864 7.09569C8.10764 6.73007 8.4497 6.72116 9.29008 7.0355C10.1305 7.34984 15.1684 8.27726 16 8.58491V10.2124C16 10.3818 15.8088 10.5468 15.3727 10.7842V10.7853Z" fill="#808080"/>
<path d="M15.3727 9.14224C14.5203 9.5948 10.0966 11.4508 9.14364 11.9512C8.19069 12.4517 7.68035 12.4473 6.93504 12.085C6.18974 11.7227 1.49826 9.7765 0.648041 9.36518C-0.202174 8.95386 -0.218566 8.66627 0.615256 8.33409C1.44908 8.00192 6.12963 6.13259 7.11864 5.76474C8.10764 5.3969 8.44969 5.38909 9.29007 5.70455C10.1305 6.02 14.5356 7.80462 15.3629 8.11561C16.1901 8.42661 16.2284 8.68187 15.3727 9.13332V9.14224Z" fill="#B5B6C0"/>
<path d="M15.3727 8.09667C14.5203 8.55035 10.0966 10.4052 9.14364 10.9057C8.1907 11.4062 7.68472 11.4017 6.93942 11.0372C6.19411 10.6727 1.49826 8.73762 0.648044 8.32407C0.219658 8.11674 0.00109388 7.94285 0.00109388 7.77787V6.1326C0.00109388 6.1326 6.12964 4.77157 7.11864 4.40595C8.10764 4.04033 8.4497 4.0303 9.29008 4.3491C10.1305 4.6679 15.1684 5.5864 16 5.89628V7.52373C16 7.69316 15.8088 7.86259 15.3727 8.09667Z" fill="#808080"/>
<path d="M15.3727 6.44583C14.5203 6.90062 10.0966 8.75546 9.14363 9.25595C8.19069 9.75645 7.68035 9.7531 6.93504 9.38972C6.18974 9.02633 1.49825 7.08789 0.648039 6.67323C-0.202176 6.25856 -0.217476 5.97655 0.615254 5.64437C1.44798 5.31219 6.12963 3.43841 7.11863 3.08059C8.10764 2.72278 8.44969 2.70049 9.29007 3.01148C10.1305 3.32248 14.5356 5.1227 15.3629 5.42478C16.1901 5.72686 16.2284 5.99215 15.3727 6.44249V6.44583Z" fill="#B5B6C0"/>
<path d="M15.3727 5.30662C14.5203 5.76141 10.0966 7.61736 9.14364 8.11674C8.1907 8.61612 7.68472 8.61278 6.93942 8.25051C6.19411 7.88823 1.49826 5.94757 0.648044 5.53402C0.219658 5.32891 0.00109388 5.15391 0.00109388 4.98893V3.33809C0.00109388 3.33809 6.12964 1.98151 7.11864 1.61701C8.10764 1.25251 8.4497 1.24136 9.29008 1.5557C10.1305 1.87004 15.1662 2.79746 15.9978 3.10735V4.73479C16 4.90645 15.8088 5.07365 15.3727 5.30662Z" fill="#808080"/>
<path d="M15.3727 3.65799C14.5203 4.10386 10.0966 5.97096 9.14364 6.467C8.19069 6.96303 7.68035 6.96192 6.93504 6.60076C6.18974 6.2396 1.49826 4.2967 0.648041 3.88427C-0.202174 3.47184 -0.218566 3.18536 0.615256 2.85318C1.44908 2.52101 6.12963 0.648337 7.11864 0.284949C8.10764 -0.0784382 8.44969 -0.0895851 9.29007 0.224756C10.1305 0.539098 14.5356 2.32594 15.3629 2.63582C16.1901 2.9457 16.2284 3.2032 15.3727 3.65464V3.65799Z" fill="#B5B6C0"/>
<path d="M8.2519 1.31381L9.30756 0.960453L9.02124 1.65825L10.0955 2.06845L8.71088 2.21559L8.39943 2.97803L7.89891 2.12753L6.29793 1.98039L7.49348 1.5412L7.13394 0.865705L8.2519 1.31381Z" fill="white"/>
<path d="M8.31856 5.76474L5.73076 4.669L9.43761 4.08825L8.31856 5.76474Z" fill="white"/>
<path d="M4.73082 2.49201C5.82364 2.49201 6.71211 2.84314 6.71211 3.27229C6.71211 3.70145 5.82146 4.05257 4.73082 4.05257C3.64018 4.05257 2.74844 3.70145 2.74844 3.27229C2.74844 2.84314 3.63691 2.49201 4.73082 2.49201Z" fill="white"/>
<path d="M11.7358 2.27689L13.9291 3.16083L11.738 4.04478L11.7358 2.27689Z" fill="#333333"/>
<path d="M11.7358 2.27689L11.738 4.04478L11.4998 4.13953L9.30756 3.25558L11.7358 2.27689Z" fill="#333333"/>
</g>
</g>
</svg>
