<svg viewBox="0 0 14 14" fill="none" xmlns="http://www.w3.org/2000/svg">
<path d="M13.2479 7.66857C12.2795 8.88877 11.2336 10.2833 9.14186 10.2833C7.27342 10.2833 6.57733 8.63526 6.5284 7.29646C6.93776 8.1621 7.73815 8.8631 8.98691 8.83067C11.3886 8.75319 13.0349 6.58394 13.0349 4.60837C13.0349 2.24543 11.2724 0.541016 8.21218 0.541016C6.02355 0.541016 3.31199 1.37385 1.5301 2.6909C1.51073 4.04669 2.2661 5.80921 2.53725 5.61552C4.08203 4.50483 5.30698 3.78985 6.49509 3.43134C4.73635 5.39257 0.516647 9.94646 0 10.7481C0.058105 11.4841 0.968417 13.4597 1.41389 13.4597C1.54947 13.4597 1.66568 13.3822 1.80126 13.2466C3.0734 11.8173 4.11044 10.5358 5.03286 9.30055C5.16238 11.1109 6.05261 13.3241 8.54144 13.3241C10.7688 13.3241 12.9768 11.7166 13.9839 8.09467C14.1002 7.6492 13.5578 7.30057 13.2479 7.66857ZM10.7107 4.74395C10.7107 5.88668 9.58733 6.44836 8.56081 6.44836C8.0121 6.44836 7.59059 6.30428 7.25725 6.11706C7.8706 5.1883 8.47776 4.23594 9.13007 3.21644C10.2803 3.41112 10.7107 4.05046 10.7107 4.74395Z" fill="#FF4438"/>
</svg>
