<svg width="108" height="100" viewBox="0 0 108 100" fill="none" xmlns="http://www.w3.org/2000/svg">
<g clip-path="url(#clip0_632_8801)">
<path d="M50.5446 97.6196C50.5446 93.3705 8.96338 95.731 8.96338 97.6196C8.96338 99.5083 50.5446 101.869 50.5446 97.6196Z" fill="#01112A"/>
<path d="M97.2934 3.51163L97.0991 3.40799C97.5059 3.03167 97.8641 2.70365 100.647 1.41371L100.784 1.35032L100.536 0.822064L100.399 0.885454C98.0118 1.99227 97.3429 2.41991 96.9018 2.79824C96.9797 1.85744 97.004 0.92369 96.9706 0.15093L96.9645 0L96.3786 0.025155L96.3847 0.176085C96.4201 0.996136 96.3887 1.98925 96.2977 2.98539C95.6642 2.65536 94.7232 2.17842 93.5737 1.6713L93.4351 1.60992L93.1973 2.1432L93.3359 2.20458C94.4732 2.70567 95.4113 3.1816 96.0457 3.51264C95.6986 3.75513 95.2403 4.03083 94.6159 4.37394C94.5309 4.42023 94.2729 4.5621 94.1586 4.50274L94.024 4.4323L93.7508 4.94748L93.8843 5.01791C93.9886 5.07224 94.1039 5.10042 94.2274 5.10042C94.5056 5.10042 94.7616 4.95955 94.8982 4.88409C95.4163 4.60034 95.8322 4.35483 96.1641 4.13749C96.0214 5.16079 95.7583 6.56746 95.2959 7.7598L95.2413 7.90067L95.7877 8.11096L95.8423 7.97009C96.3645 6.62581 96.6417 5.03803 96.7854 3.90505L97.0161 4.02781C98.1747 4.64562 99.1745 5.1789 100.419 5.63974L100.562 5.69206L100.766 5.1457L100.623 5.09337C99.4163 4.64662 98.4317 4.12139 97.2913 3.51364L97.2934 3.51163Z" fill="#FF7885"/>
<path d="M89.3127 87.1902C88.8493 86.9306 88.3656 86.6811 87.8738 86.4466C88.3606 86.0924 88.7967 85.7664 89.1104 85.5229L89.2034 85.4505L88.909 85.0752L88.8159 85.1476C88.5204 85.377 88.1116 85.6829 87.6563 86.015C87.6613 85.6618 87.6866 85.1456 87.7868 84.2853L87.8 84.1686L87.3244 84.1143L87.3112 84.231C87.2009 85.1838 87.1787 85.7453 87.1766 86.1287C86.274 85.7332 85.3441 85.3901 84.4102 85.1074L84.2978 85.0732L84.1582 85.529L84.2705 85.5632C85.1681 85.8349 86.0626 86.1629 86.9297 86.5402C86.4663 86.8712 86.0474 87.162 85.7408 87.3683L85.6426 87.4337L85.9098 87.8281L86.0069 87.7627C86.3165 87.5555 86.7324 87.2657 87.1888 86.9397C87.1989 87.4679 87.1888 88.0394 87.0603 89.1432L87.0471 89.26L87.5227 89.3143L87.5359 89.1976C87.6796 87.9609 87.6775 87.3663 87.6664 86.8753C88.1481 87.1047 88.6226 87.3492 89.077 87.6038L89.1792 87.6611L89.4139 87.2466L89.3117 87.1892L89.3127 87.1902Z" fill="#FF7885"/>
<path d="M97.0526 74.043L97.6779 75.3027L99.0763 75.505L98.0645 76.486L98.3033 77.8705L97.0526 77.2165L95.8019 77.8705L96.0407 76.486L95.0288 75.505L96.4272 75.3027L97.0526 74.043Z" fill="#FF3450"/>
<path d="M100.127 25.3066L46.1167 79.0135C46.3393 79.1252 46.5619 79.2348 46.7876 79.3425L100.458 25.9738C100.35 25.7504 100.239 25.528 100.127 25.3066Z" fill="#664611"/>
<path d="M101.556 28.4541L49.2817 80.4343C49.5205 80.5299 49.7614 80.6225 50.0032 80.713L101.836 29.1705C101.745 28.9301 101.651 28.6916 101.556 28.4531V28.4541Z" fill="#664611"/>
<path d="M96.6329 19.6465L40.4238 75.5398C40.6161 75.6806 40.8104 75.8195 41.0057 75.9574L97.0528 20.225C96.9142 20.0309 96.7745 19.8377 96.6329 19.6465Z" fill="#664611"/>
<path d="M98.4804 22.376L43.1689 77.3768C43.3764 77.5036 43.5838 77.6283 43.7933 77.7521L98.8579 22.9978C98.7344 22.7895 98.6079 22.5822 98.4804 22.377V22.376Z" fill="#664611"/>
<path d="M92.3666 14.7529L35.5029 71.2972C35.6679 71.4653 35.8348 71.6303 36.0038 71.7953L92.8675 15.251C92.7016 15.084 92.5346 14.9179 92.3666 14.7529Z" fill="#664611"/>
<path d="M94.5927 17.1075L37.8696 73.5109C38.0487 73.6648 38.2288 73.8178 38.411 73.9687L95.0531 17.6448C94.9013 17.4647 94.7475 17.2845 94.5927 17.1064V17.1075Z" fill="#664611"/>
<path d="M87.3581 10.5996L31.3262 66.3169C31.4638 66.5111 31.6034 66.7042 31.7451 66.8964L87.941 11.0152C87.7477 10.8743 87.5534 10.7365 87.3581 10.5986V10.5996Z" fill="#664611"/>
<path d="M89.9553 12.584L33.3213 68.8999C33.4731 69.081 33.6259 69.2601 33.7807 69.4382L90.4977 13.0408C90.3186 12.8869 90.1375 12.7349 89.9553 12.584Z" fill="#664611"/>
<path d="M81.5691 7.21973L27.9272 60.5603C28.0355 60.7837 28.1458 61.0071 28.2571 61.2284L82.241 7.54775C82.0184 7.43606 81.7948 7.32638 81.5691 7.21973Z" fill="#664611"/>
<path d="M84.5663 8.80762L29.5239 63.5408C29.6474 63.749 29.7728 63.9563 29.9003 64.1626L85.1916 9.18192C84.9842 9.05514 84.7757 8.93037 84.5663 8.80762Z" fill="#664611"/>
<path d="M74.8814 4.73538L25.4277 53.9113C25.4996 54.1709 25.5734 54.4295 25.6503 54.6861L75.6606 4.95574C75.4016 4.87927 75.1415 4.80582 74.8814 4.73438V4.73538Z" fill="#664611"/>
<path d="M78.349 5.85449L26.5527 57.3598C26.6438 57.6002 26.7369 57.8397 26.832 58.0782L79.0714 6.1322C78.8316 6.03762 78.5908 5.94505 78.349 5.85449Z" fill="#664611"/>
<path d="M67.0294 3.4082L24.0933 46.1022C24.1145 46.4101 24.1398 46.718 24.1681 47.0239L67.9563 3.48266C67.6487 3.45449 67.3391 3.42933 67.0294 3.4082Z" fill="#664611"/>
<path d="M71.1273 3.90039L24.5889 50.1775C24.6384 50.4592 24.6901 50.7389 24.7447 51.0186L71.9733 4.05635C71.692 4.00202 71.4107 3.94969 71.1273 3.9014V3.90039Z" fill="#664611"/>
<path d="M57.3598 3.88827L24.5758 36.4881C24.508 36.8795 24.4463 37.2739 24.3896 37.6694L58.5478 3.70312C58.1501 3.75847 57.7544 3.82085 57.3598 3.88827Z" fill="#664611"/>
<path d="M62.498 3.34562L24.0313 41.5962C24.0172 41.9373 24.007 42.2794 24.001 42.6226L63.5301 3.31543C63.1851 3.32147 62.841 3.33052 62.498 3.34562Z" fill="#664611"/>
<path d="M42.2096 9.81709L30.5385 21.4226C30.0012 22.2396 29.4923 23.0768 29.0146 23.9341L44.7352 8.30176C43.8731 8.77668 43.0312 9.2828 42.2096 9.81709Z" fill="#664611"/>
<path d="M51.1965 5.44939L26.1474 30.3578C25.9804 30.8418 25.8236 31.3308 25.6748 31.8239L52.6698 4.97949C52.174 5.1264 51.6832 5.28336 51.1955 5.44939H51.1965Z" fill="#664611"/>
<path d="M98.0242 64.9348C98.5433 64.1338 99.0351 63.3128 99.4975 62.4746L83.4946 78.3876C84.3385 77.9278 85.1632 77.4398 85.9687 76.9226L98.0242 64.9348Z" fill="#664611"/>
<path d="M104.035 48.8271L69.7695 82.9C70.1662 82.8457 70.5608 82.7853 70.9534 82.7189L103.853 50.0044C103.92 49.614 103.98 49.2216 104.035 48.8271Z" fill="#664611"/>
<path d="M102.772 54.6494L75.626 81.6427C76.1188 81.4978 76.6075 81.3439 77.0912 81.1819L102.308 56.1064C102.472 55.6244 102.627 55.1384 102.772 54.6494Z" fill="#664611"/>
<path d="M104.236 39.4912L60.3804 83.1008C60.688 83.13 60.9956 83.1552 61.3052 83.1773L104.312 40.4119C104.29 40.104 104.265 39.7981 104.235 39.4922L104.236 39.4912Z" fill="#664611"/>
<path d="M104.412 43.8838L64.7988 83.2744C65.1429 83.2694 65.4859 83.2603 65.8279 83.2473L104.385 44.9071C104.398 44.567 104.408 44.2259 104.412 43.8838Z" fill="#664611"/>
<path d="M102.743 31.8408L52.688 81.6144C52.946 81.6909 53.2061 81.7643 53.4661 81.8368L102.965 32.6156C102.894 32.357 102.82 32.0984 102.742 31.8418L102.743 31.8408Z" fill="#664611"/>
<path d="M103.653 35.5039L56.3711 82.5205C56.6514 82.5759 56.9327 82.6282 57.215 82.6775L103.81 36.3441C103.761 36.0634 103.708 35.7836 103.652 35.5049L103.653 35.5039Z" fill="#664611"/>
<path d="M97.0526 36.4844C102.605 36.4844 107.106 32.0087 107.106 26.4878C107.106 20.9668 102.605 16.4912 97.0526 16.4912C91.5004 16.4912 86.9995 20.9668 86.9995 26.4878C86.9995 32.0087 91.5004 36.4844 97.0526 36.4844Z" fill="#FF3450"/>
<path d="M81.8432 73.4458C83.0168 73.4458 83.9682 72.4997 83.9682 71.3327C83.9682 70.1658 83.0168 69.2197 81.8432 69.2197C80.6696 69.2197 79.7183 70.1658 79.7183 71.3327C79.7183 72.4997 80.6696 73.4458 81.8432 73.4458Z" fill="#FF7885"/>
<path d="M81.8433 73.6969C83.1565 73.6969 84.2212 72.6383 84.2212 71.3323C84.2212 70.0264 83.1565 68.9678 81.8433 68.9678C80.53 68.9678 79.4653 70.0264 79.4653 71.3323C79.4653 72.6383 80.53 73.6969 81.8433 73.6969Z" fill="#FF7885"/>
<path d="M29.6492 67.7814L25.5693 69.6904L26.7184 72.1186L30.7982 70.2095L29.6492 67.7814Z" fill="#465282"/>
<path d="M9.97409 71.8107L2.94657 74.3533C2.94657 74.3533 2.08343 74.1018 1.35488 72.5603C0.62531 71.0198 0.98048 70.1977 0.98048 70.1977L7.43022 66.4355L9.97308 71.8096L9.97409 71.8107Z" fill="#253DAC"/>
<path d="M22.5821 68.4004L10.65 73.2382C10.65 73.2382 9.34565 73.6477 7.47671 69.6964C5.60675 65.745 6.75523 65.0075 6.75523 65.0075L18.1106 58.9502L22.5821 68.4004Z" fill="#253DAC"/>
<path d="M39.9148 63.6339L23.5891 70.5274C23.5891 70.5274 22.0834 71.2317 18.8403 64.3795C15.5972 57.5263 17.1039 56.822 17.1039 56.822L32.8528 48.709L39.9148 63.6339Z" fill="#253DAC"/>
<path d="M49.9595 61.9903L41.0974 66.1369C41.0974 66.1369 38.8662 66.8905 34.4554 57.5681C30.0446 48.2467 31.6677 46.2071 31.6677 46.2071L40.5298 42.0605L49.9595 61.9903Z" fill="#4766C4"/>
<path d="M49.9605 61.9881C51.1821 61.4165 50.0613 56.4917 47.457 50.9883C44.8527 45.485 41.7511 41.487 40.5294 42.0587C39.3077 42.6303 40.4286 47.5551 43.0329 53.0585C45.6372 58.5618 48.7388 62.5598 49.9605 61.9881Z" fill="#A2B8F2"/>
<path d="M49.4608 60.932C50.3189 60.5305 49.1271 56.2164 46.7988 51.2964C44.4705 46.3763 41.8874 42.7132 41.0293 43.1148C40.1712 43.5163 41.363 47.8303 43.6913 52.7504C46.0196 57.6705 48.6027 61.3335 49.4608 60.932Z" fill="#01112A"/>
<path d="M7.47585 69.6973C6.92438 68.5321 6.63599 67.6477 6.50242 66.9775L5.42578 67.6054C6.01976 71.604 8.96332 72.1766 8.96332 72.1766C8.52922 71.6473 8.02733 70.8615 7.47585 69.6973Z" fill="#01112A"/>
<path d="M16.9897 59.5488L15.3828 60.4061C16.6831 66.9112 21.4045 68.8793 21.4045 68.8793C20.7185 67.9627 19.8665 66.551 18.8394 64.3816C17.8123 62.2122 17.2629 60.6587 16.9897 59.5488Z" fill="#01112A"/>
<path d="M31.5415 49.3848L29.4004 50.4876C31.582 61.4913 38.4092 64.2705 38.4092 64.2705C37.3831 63.0258 36.0646 60.9671 34.4568 57.5682C32.6384 53.7245 31.8451 51.1195 31.5415 49.3848Z" fill="#01112A"/>
<path d="M31.5971 77.1675H31.8753V76.0889H26.6348V77.1675H26.9131L18.394 97.6195H19.5678L27.9847 77.412L27.3917 77.1675H28.7132V97.6195H29.7969V77.1675H31.1185L30.5255 77.412L38.9423 97.6195H40.1161L31.5971 77.1675Z" fill="#465282"/>
<path d="M30.0841 74.1324H28.4327V72.3464L27.4653 70.0794L28.9862 69.4385L30.0841 72.0133V74.1324Z" fill="#465282"/>
<path d="M26.6406 76.1489C26.6406 74.7111 27.8124 73.5459 29.2584 73.5459C30.7043 73.5459 31.8761 74.7111 31.8761 76.1489H26.6416H26.6406Z" fill="#465282"/>
</g>
<defs>
<clipPath id="clip0_632_8801">
<rect width="106.211" height="100" fill="white" transform="translate(0.894531)"/>
</clipPath>
</defs>
</svg>
