<svg width="107" height="33" viewBox="0 0 107 33" fill="none" xmlns="http://www.w3.org/2000/svg">
<path d="M86.8031 7.77273C87.8098 6 89.457 4.09091 90.0519 3.5C92.7974 4.63636 95.3598 6.95455 94.9938 7.54545C93.9413 9.27273 92.3398 11.2273 91.7449 11.8182C88.9995 10.6818 86.437 8.40909 86.8031 7.77273ZM106.159 15.5909C105.838 17.1364 103.917 18.8636 103.093 19.1364C102.407 17.6818 101.629 16.8182 100.897 16.8182C99.9814 16.8182 99.9356 17.4545 99.9356 18.2727C99.9356 19.7273 100.988 22.9091 100.988 26.2273C100.988 29.8636 98.4256 32.5455 94.4904 32.5455C90.887 32.5455 88.8958 30.199 88.0075 26.4503C85.6537 30.6404 82.2115 32.5455 79.5733 32.5455C75.4489 32.5455 74.4782 29.5172 74.5761 26.4457C72.9188 29.355 69.7288 32.5455 66.6695 32.5455C63.5465 32.5455 62.4434 29.8452 62.6963 26.7005C60.8253 30.1628 57.4405 32.5455 54.1776 32.5455C50.6368 32.5455 48.8842 29.7513 49.4513 26.288C47.0693 29.1964 42.635 32.5455 38.025 32.5455C32.7685 32.5455 30.4804 29.7298 30.2092 26.2015C27.6722 30.2406 24.2526 32.6818 20.1793 32.6818C14.2994 32.6818 12.1962 27.4878 11.8902 23.2391C9.71099 26.138 7.26097 29.1455 4.2555 32.5C3.93519 32.8182 3.66065 33 3.34034 33C2.2879 33 0.137274 28.3636 0 26.6364C1.22054 24.7549 11.1897 14.0677 15.3447 9.46498C12.5378 10.3063 9.64383 11.9843 5.99431 14.5909C5.35369 15.0455 3.56913 10.9091 3.61489 7.72727C7.82463 4.63636 14.2308 2.68182 19.4014 2.68182C26.6312 2.68182 30.7952 6.68182 30.7952 12.2273C30.7952 16.8636 26.9057 21.9545 21.2317 22.1364C18.2815 22.2125 16.3906 20.5673 15.4235 18.5358C15.5391 21.6778 17.1835 25.5455 21.5978 25.5455C26.7227 25.5455 29.0106 22.2727 32.8543 17.5C35.7828 13.9091 39.1689 10.7273 44.1108 10.7273C47.1308 10.7273 49.1899 12.5909 49.1899 15.4091C49.1899 18.8182 45.1632 23.5455 39.535 23.5455C38.5737 23.5455 37.6975 23.4196 36.9579 23.171C36.9392 23.3143 36.9268 23.4553 36.9268 23.5909C36.9268 25.1818 37.5216 26.1364 40.1298 26.1364C43.9735 26.1364 47.5884 23.8636 51.9812 18.5455C56.2824 13.3182 59.5313 11.0455 62.9631 11.0455C65.2797 11.0455 67.038 12.2927 67.8129 14.3932C72.4123 7.79437 76.3141 3.11882 79.6191 0C82.8679 1.36364 85.2015 4.04545 84.5609 4.59091C82.1357 6.77273 74.0366 15.5455 70.8335 20.7727C70.0099 22.1364 69.232 23.6364 69.232 24.3636C69.232 25.0455 69.6438 25.2727 70.1014 25.2727C73.1214 25.2727 80.3054 15.5455 84.3779 11.2727C86.9403 12.3182 89.5486 14.5455 88.908 15.3182C85.5218 19.3182 82.9594 22.5909 82.9594 24.4545C82.9594 24.9545 83.1424 25.2727 83.8288 25.2727C85.11 25.2727 86.2997 24.1364 88.2673 21.7273C88.6792 21.2273 89.1825 21.2273 89.5028 22C90.3722 24.0909 91.6534 25.2273 92.6601 25.2273C93.8498 25.2273 94.4447 24.1818 94.4447 22.5909C94.4447 20.6818 94.0328 18.2273 94.0328 17.1364C94.0328 13.4545 96.7783 11.3182 100.21 11.3182C102.773 11.3182 105.061 12.5455 106.159 15.5909ZM21.5699 8.96063C20.0289 11.3532 18.5944 13.5883 17.1453 15.7679C17.9329 16.2073 18.9287 16.5455 20.2251 16.5455C22.6502 16.5455 25.3042 15.2273 25.3042 12.5455C25.3042 10.9179 24.2874 9.41751 21.5699 8.96063ZM37.6539 21.167C38.1348 21.3516 38.6994 21.4545 39.3062 21.4545C42.555 21.4545 44.7514 19 44.7514 17.3636C44.7514 16.6364 44.2938 16.1364 43.5617 16.1364C41.7259 16.1364 38.9568 18.6956 37.6539 21.167ZM64.885 17.7727C64.885 16.8636 64.3816 16.3182 63.558 16.3182C60.8582 16.3182 56.7858 21.4091 56.7858 23.9545C56.7858 24.7727 57.2434 25.3182 58.2043 25.3182C61.1786 25.3182 64.885 19.9545 64.885 17.7727Z" fill="#FF4438"/>
</svg>
