<?xml version="1.0" encoding="UTF-8"?>
<svg xmlns="http://www.w3.org/2000/svg" xmlns:xlink="http://www.w3.org/1999/xlink" width="16px" height="px" viewBox="0 0 16 15" version="1.1">
<g id="surface1">
<path style=" stroke:none;fill-rule:nonzero;fill-opacity:1;" d="M 2.25 14.699219 L 0 14.699219 L 0 0 L 2.25 0 L 2.25 0.898438 L 0.890625 0.898438 L 0.890625 13.800781 L 2.25 13.800781 Z M 15.703125 14.699219 L 13.511719 14.699219 L 13.511719 13.800781 L 14.816406 13.800781 L 14.816406 0.898438 L 13.511719 0.898438 L 13.511719 0 L 15.703125 0 Z M 15.703125 14.699219 "/>
<path style=" stroke:none;fill-rule:nonzero;fill-opacity:1;" d="M 11.378906 3.121094 C 11.734375 3.121094 11.96875 3.359375 11.96875 3.71875 C 11.96875 4.078125 11.734375 4.320312 11.378906 4.320312 C 11.023438 4.320312 10.785156 4.078125 10.785156 3.71875 C 10.785156 3.359375 11.082031 3.121094 11.378906 3.121094 M 11.378906 2.519531 C 10.726562 2.519531 10.191406 3.058594 10.191406 3.71875 C 10.191406 4.378906 10.726562 4.921875 11.378906 4.921875 C 12.03125 4.921875 12.5625 4.378906 12.5625 3.71875 C 12.5625 3.058594 12.089844 2.519531 11.378906 2.519531 Z M 11.378906 6.71875 C 11.734375 6.71875 11.96875 6.960938 11.96875 7.320312 C 11.96875 7.679688 11.734375 7.921875 11.378906 7.921875 C 11.023438 7.921875 10.785156 7.679688 10.785156 7.320312 C 10.785156 6.960938 11.082031 6.71875 11.378906 6.71875 M 11.378906 6.121094 C 10.726562 6.121094 10.191406 6.660156 10.191406 7.320312 C 10.191406 7.980469 10.726562 8.519531 11.378906 8.519531 C 12.03125 8.519531 12.5625 7.980469 12.5625 7.320312 C 12.5625 6.660156 12.089844 6.121094 11.378906 6.121094 Z M 11.378906 10.320312 C 11.734375 10.320312 11.96875 10.558594 11.96875 10.921875 C 11.96875 11.28125 11.734375 11.519531 11.378906 11.519531 C 11.023438 11.519531 10.785156 11.28125 10.785156 10.921875 C 10.785156 10.558594 11.082031 10.320312 11.378906 10.320312 M 11.378906 9.71875 C 10.726562 9.71875 10.191406 10.261719 10.191406 10.921875 C 10.191406 11.578125 10.726562 12.121094 11.378906 12.121094 C 12.03125 12.121094 12.5625 11.578125 12.5625 10.921875 C 12.5625 10.261719 12.089844 9.71875 11.378906 9.71875 Z M 7.820312 3.121094 C 8.179688 3.121094 8.414062 3.359375 8.414062 3.71875 C 8.414062 4.078125 8.179688 4.320312 7.820312 4.320312 C 7.464844 4.320312 7.230469 4.078125 7.230469 3.71875 C 7.230469 3.359375 7.527344 3.121094 7.820312 3.121094 M 7.820312 2.519531 C 7.171875 2.519531 6.636719 3.058594 6.636719 3.71875 C 6.636719 4.378906 7.171875 4.921875 7.820312 4.921875 C 8.472656 4.921875 9.007812 4.378906 9.007812 3.71875 C 9.007812 3.058594 8.535156 2.519531 7.820312 2.519531 Z M 7.820312 2.519531 "/>
<path style=" stroke:none;fill-rule:nonzero;fill-opacity:1;" d="M 9.007812 7.320312 C 9.007812 7.984375 8.476562 8.519531 7.820312 8.519531 C 7.167969 8.519531 6.636719 7.984375 6.636719 7.320312 C 6.636719 6.65625 7.167969 6.121094 7.820312 6.121094 C 8.476562 6.121094 9.007812 6.65625 9.007812 7.320312 Z M 9.007812 7.320312 "/>
<path style=" stroke:none;fill-rule:nonzero;fill-opacity:1;" d="M 7.820312 10.320312 C 8.179688 10.320312 8.414062 10.558594 8.414062 10.921875 C 8.414062 11.28125 8.179688 11.519531 7.820312 11.519531 C 7.464844 11.519531 7.230469 11.28125 7.230469 10.921875 C 7.230469 10.558594 7.527344 10.320312 7.820312 10.320312 M 7.820312 9.71875 C 7.171875 9.71875 6.636719 10.261719 6.636719 10.921875 C 6.636719 11.578125 7.171875 12.121094 7.820312 12.121094 C 8.472656 12.121094 9.007812 11.578125 9.007812 10.921875 C 9.007812 10.261719 8.535156 9.71875 7.820312 9.71875 Z M 7.820312 9.71875 "/>
<path style=" stroke:none;fill-rule:nonzero;fill-opacity:1;" d="M 5.453125 3.71875 C 5.453125 4.382812 4.921875 4.921875 4.265625 4.921875 C 3.613281 4.921875 3.082031 4.382812 3.082031 3.71875 C 3.082031 3.058594 3.613281 2.519531 4.265625 2.519531 C 4.921875 2.519531 5.453125 3.058594 5.453125 3.71875 Z M 5.453125 3.71875 "/>
<path style=" stroke:none;fill-rule:nonzero;fill-opacity:1;" d="M 4.265625 6.71875 C 4.621094 6.71875 4.859375 6.960938 4.859375 7.320312 C 4.859375 7.679688 4.621094 7.921875 4.265625 7.921875 C 3.910156 7.921875 3.675781 7.679688 3.675781 7.320312 C 3.675781 6.960938 3.96875 6.71875 4.265625 6.71875 M 4.265625 6.121094 C 3.613281 6.121094 3.082031 6.660156 3.082031 7.320312 C 3.082031 7.980469 3.613281 8.519531 4.265625 8.519531 C 4.917969 8.519531 5.453125 7.980469 5.453125 7.320312 C 5.453125 6.660156 4.976562 6.121094 4.265625 6.121094 Z M 4.265625 6.121094 "/>
<path style=" stroke:none;fill-rule:nonzero;fill-opacity:1;" d="M 5.453125 10.921875 C 5.453125 11.582031 4.921875 12.121094 4.265625 12.121094 C 3.613281 12.121094 3.082031 11.582031 3.082031 10.921875 C 3.082031 10.257812 3.613281 9.71875 4.265625 9.71875 C 4.921875 9.71875 5.453125 10.257812 5.453125 10.921875 Z M 5.453125 10.921875 "/>
</g>
</svg>
