<?xml version="1.0" encoding="UTF-8"?>
<svg xmlns="http://www.w3.org/2000/svg" xmlns:xlink="http://www.w3.org/1999/xlink" width="16px" height="px" viewBox="0 0 16 15" version="1.1">
<g id="surface1">
<path style=" stroke:none;fill-rule:nonzero;fill-opacity:1;" d="M 14.1875 4.820312 L 14.1875 3.054688 L 12.375 2.519531 L 12.375 1.125 L 10.347656 0 L 7.894531 0.964844 L 5.546875 0 L 3.359375 1.125 L 3.359375 2.519531 L 1.546875 3.054688 L 1.546875 4.820312 L 0 7.394531 L 1.546875 9.910156 L 1.546875 11.679688 L 3.359375 12.214844 L 3.359375 13.605469 L 5.386719 14.730469 L 7.839844 13.769531 L 10.1875 14.730469 L 12.375 13.605469 L 12.375 12.214844 L 14.1875 11.679688 L 14.1875 9.910156 L 15.734375 7.394531 Z M 7.464844 13.019531 L 5.441406 13.820312 L 4.160156 13.070312 L 4.160156 11.570312 L 2.347656 11.035156 L 2.347656 9.964844 L 3.679688 9.964844 L 4.90625 10.980469 L 5.441406 10.339844 L 4.480469 9.535156 L 5.441406 8.730469 L 4.90625 8.089844 L 3.679688 9.105469 L 2.027344 9.105469 L 0.960938 7.285156 L 1.972656 5.570312 L 3.679688 5.570312 L 4.90625 6.589844 L 5.441406 5.945312 L 4.425781 5.25 L 5.386719 4.445312 L 4.851562 3.855469 L 3.679688 4.820312 L 2.347656 4.820312 L 2.347656 3.695312 L 4.160156 3.160156 L 4.160156 1.660156 L 5.546875 0.910156 L 7.464844 1.660156 Z M 13.761719 9.105469 L 12.054688 9.105469 L 10.828125 8.089844 L 10.292969 8.730469 L 11.253906 9.535156 L 10.292969 10.339844 L 10.828125 10.980469 L 12.054688 9.964844 L 13.386719 9.964844 L 13.386719 11.089844 L 11.574219 11.625 L 11.574219 13.125 L 10.1875 13.875 L 8.265625 13.070312 L 8.265625 1.714844 L 10.292969 0.910156 L 11.574219 1.605469 L 11.574219 3.105469 L 13.386719 3.644531 L 13.386719 4.714844 L 12.054688 4.714844 L 10.828125 3.75 L 10.292969 4.394531 L 11.253906 5.195312 L 10.292969 6 L 10.828125 6.644531 L 12.054688 5.625 L 13.707031 5.625 L 14.773438 7.445312 Z M 13.761719 9.105469 "/>
</g>
</svg>
