<?xml version="1.0" encoding="UTF-8"?>
<svg xmlns="http://www.w3.org/2000/svg" xmlns:xlink="http://www.w3.org/1999/xlink" width="16px" height="px" viewBox="0 0 15 14" version="1.1">
<g id="surface1">
<path style=" stroke:none;fill-rule:nonzero;fill-opacity:1;" d="M 0.484375 5 L 0.484375 6.300781 L 0 7 L 0.484375 7.699219 L 0.484375 9 C 0.484375 9.601562 1.160156 10.199219 1.789062 10.199219 L 1.789062 9.449219 C 1.546875 9.449219 1.210938 9.148438 1.210938 9 L 1.210938 7.449219 L 0.917969 7 L 1.257812 6.550781 L 1.257812 5 C 1.257812 4.648438 1.597656 4.550781 1.839844 4.550781 L 1.839844 3.800781 C 1.015625 3.800781 0.484375 4.25 0.484375 5 Z M 5.804688 9 C 5.804688 9.148438 5.515625 9.449219 5.226562 9.449219 L 5.226562 10.199219 C 5.902344 10.199219 6.582031 9.601562 6.582031 9 L 6.582031 7.699219 L 7.113281 7 L 6.582031 6.300781 L 6.582031 5 C 6.582031 4.300781 6.046875 3.800781 5.324219 3.800781 L 5.324219 4.550781 C 5.710938 4.550781 5.855469 4.699219 5.855469 5 L 5.855469 6.550781 L 6.195312 7 L 5.804688 7.449219 Z M 5.804688 9 "/>
<path style=" stroke:none;fill-rule:nonzero;fill-opacity:1;" d="M 14.757812 3.890625 L 14.757812 3.839844 C 14.757812 3.789062 14.710938 3.691406 14.660156 3.640625 L 11.371094 0.140625 C 11.324219 0.0898438 11.324219 0.0898438 11.273438 0.0898438 L 3.773438 0.0898438 C 3.582031 0.0390625 3.386719 0.191406 3.386719 0.441406 L 3.386719 2.441406 L 4.113281 2.441406 L 4.113281 0.789062 L 10.742188 0.789062 L 10.742188 3.890625 C 10.742188 4.089844 10.886719 4.289062 11.128906 4.289062 L 14.03125 4.289062 L 14.03125 13.039062 L 4.113281 13.039062 L 4.113281 11.441406 L 3.386719 11.441406 L 3.386719 13.441406 C 3.386719 13.640625 3.53125 13.839844 3.773438 13.839844 L 14.417969 13.839844 C 14.613281 13.839844 14.804688 13.691406 14.804688 13.441406 Z M 11.46875 3.539062 L 11.46875 1.339844 L 13.546875 3.539062 Z M 11.46875 3.539062 "/>
<path style=" stroke:none;fill-rule:nonzero;fill-opacity:1;" d="M 3.53125 6.101562 C 3.824219 6.101562 4.015625 5.898438 4.015625 5.601562 C 4.015625 5.300781 3.824219 5.101562 3.53125 5.101562 C 3.242188 5.101562 3.046875 5.300781 3.046875 5.601562 C 3.046875 5.851562 3.242188 6.101562 3.53125 6.101562 Z M 4.015625 7.949219 C 4.015625 7.648438 3.824219 7.398438 3.53125 7.398438 C 3.242188 7.398438 3.046875 7.601562 3.046875 7.898438 C 3.046875 8.199219 3.242188 8.398438 3.53125 8.398438 L 3.582031 8.398438 C 3.582031 8.398438 3.628906 8.75 3.195312 9.148438 L 3.195312 9.199219 C 3.195312 9.199219 3.289062 9.300781 3.339844 9.300781 L 3.386719 9.300781 C 3.726562 9.050781 4.015625 8.648438 4.015625 7.949219 Z M 4.015625 7.949219 "/>
</g>
</svg>
