<?xml version="1.0" encoding="UTF-8"?>
<svg xmlns="http://www.w3.org/2000/svg" xmlns:xlink="http://www.w3.org/1999/xlink" width="16px" height="13px" viewBox="0 0 15 13" version="1.1">
<g id="surface1">
<path style=" stroke:none;fill-rule:nonzero;fill-opacity:1;" d="M 4.210938 5.25 C 4.789062 5.5 5.46875 5.648438 6.144531 5.648438 L 6.433594 5.648438 C 7.257812 5.601562 7.984375 5.351562 8.515625 5 C 9 4.648438 9.289062 4.199219 9.242188 3.699219 C 9.195312 3.148438 8.757812 2.648438 8.082031 2.351562 C 7.453125 2.050781 6.628906 1.898438 5.804688 1.949219 C 5.03125 2 4.257812 2.25 3.773438 2.601562 C 3.195312 3 2.953125 3.5 3.046875 4 C 3.144531 4.5 3.53125 4.949219 4.210938 5.25 Z M 4.160156 3.25 C 4.597656 2.949219 5.175781 2.75 5.855469 2.75 L 6.144531 2.75 C 6.726562 2.75 7.304688 2.851562 7.789062 3.101562 C 8.226562 3.300781 8.515625 3.601562 8.566406 3.851562 C 8.566406 4.050781 8.417969 4.25 8.175781 4.449219 C 7.742188 4.75 7.160156 4.949219 6.484375 4.949219 C 5.804688 5 5.082031 4.851562 4.546875 4.601562 C 4.066406 4.398438 3.824219 4.101562 3.773438 3.851562 C 3.726562 3.601562 3.96875 3.351562 4.160156 3.25 Z M 4.160156 3.25 "/>
<path style=" stroke:none;fill-rule:nonzero;fill-opacity:1;" d="M 2.417969 6.851562 C 3.675781 7.449219 5.226562 7.699219 6.773438 7.601562 C 7.839844 7.550781 8.804688 7.300781 9.675781 6.949219 L 12.53125 8.300781 C 12.824219 8.449219 13.160156 8.5 13.5 8.5 L 13.644531 8.5 C 14.03125 8.5 14.417969 8.351562 14.710938 8.148438 C 15.097656 7.898438 15.289062 7.449219 15.195312 7.050781 C 15.144531 6.648438 14.855469 6.351562 14.46875 6.148438 L 12.046875 5 C 12.339844 4.449219 12.433594 3.898438 12.339844 3.300781 C 12.144531 2.25 11.324219 1.351562 9.96875 0.75 C 8.710938 0.148438 7.210938 -0.101562 5.613281 0 C 3.96875 0.101562 2.515625 0.550781 1.5 1.300781 C 0.339844 2.101562 -0.144531 3.148438 0.046875 4.25 C 0.242188 5.300781 1.066406 6.199219 2.417969 6.851562 Z M 1.933594 1.898438 C 2.855469 1.25 4.160156 0.851562 5.613281 0.75 C 7.066406 0.648438 8.46875 0.898438 9.628906 1.449219 C 10.742188 1.949219 11.417969 2.699219 11.566406 3.5 C 11.660156 4 11.515625 4.5 11.175781 5 C 11.128906 5.101562 11.082031 5.199219 11.128906 5.300781 C 11.175781 5.398438 11.226562 5.5 11.324219 5.550781 L 14.128906 6.898438 C 14.324219 7 14.417969 7.101562 14.46875 7.25 C 14.515625 7.398438 14.371094 7.550781 14.273438 7.601562 C 14.082031 7.699219 13.839844 7.800781 13.597656 7.800781 C 13.304688 7.800781 13.066406 7.75 12.824219 7.648438 L 9.824219 6.25 C 9.773438 6.25 9.726562 6.199219 9.675781 6.199219 C 9.628906 6.199219 9.582031 6.199219 9.53125 6.25 C 8.710938 6.601562 7.742188 6.851562 6.726562 6.898438 C 5.273438 7 3.871094 6.75 2.710938 6.199219 C 1.597656 5.699219 0.917969 4.949219 0.773438 4.148438 C 0.628906 3.300781 1.015625 2.550781 1.933594 1.898438 Z M 1.933594 1.898438 "/>
<path style=" stroke:none;fill-rule:nonzero;fill-opacity:1;" d="M 12.582031 9.800781 C 11.175781 9.148438 9.824219 8.550781 9.824219 8.550781 C 9.726562 8.5 9.675781 8.5 9.582031 8.550781 C 8.566406 9 7.742188 9.25 6.433594 9.351562 C 2.226562 9.601562 0.386719 7.449219 0.339844 6.898438 C -0.144531 7.449219 1.355469 10.351562 6.433594 10.050781 C 7.742188 10 8.566406 9.699219 9.628906 9.25 C 9.628906 9.25 10.597656 9.699219 12.289062 10.449219 C 14.46875 11.449219 15.675781 9.898438 14.953125 9.25 C 15 9.601562 14.226562 10.5 12.582031 9.800781 Z M 12.582031 9.800781 "/>
<path style=" stroke:none;fill-rule:nonzero;fill-opacity:1;" d="M 12.582031 11.949219 C 11.175781 11.300781 9.824219 10.699219 9.824219 10.699219 C 9.726562 10.648438 9.675781 10.648438 9.582031 10.699219 C 8.566406 11.148438 7.742188 11.398438 6.433594 11.5 C 2.226562 11.699219 0.386719 9.601562 0.339844 9 C -0.144531 9.550781 1.355469 12.449219 6.433594 12.148438 C 7.742188 12.101562 8.566406 11.800781 9.628906 11.351562 C 9.628906 11.351562 10.597656 11.800781 12.289062 12.550781 C 14.46875 13.550781 15.675781 12 14.953125 11.351562 C 15 11.75 14.226562 12.699219 12.582031 11.949219 Z M 12.582031 11.949219 "/>
</g>
</svg>
