<?xml version="1.0" encoding="UTF-8"?>
<svg xmlns="http://www.w3.org/2000/svg" xmlns:xlink="http://www.w3.org/1999/xlink" width="16px" height="15px" viewBox="0 0 15 15" version="1.1">
<g id="surface1">
<path style=" stroke:none;fill-rule:nonzero;fill-opacity:1;" d="M 7.949219 6.984375 L 10.25 8.328125 L 12.851562 4.914062 L 12.25 4.398438 L 10.101562 7.34375 L 7.699219 6 L 5.648438 8.84375 L 4.550781 7.964844 L 4.101562 8.585938 L 5.800781 9.929688 Z M 7.949219 6.984375 "/>
<path style=" stroke:none;fill-rule:nonzero;fill-opacity:1;" d="M 12.660156 10.820312 L 12.160156 11.441406 L 13.109375 12.320312 L 2.210938 12.320312 L 2.210938 1.664062 L 3.058594 2.699219 L 3.609375 2.128906 L 1.808594 0.0625 L 0.0078125 2.128906 L 0.558594 2.699219 L 1.460938 1.664062 L 1.460938 12.320312 L 0.808594 12.320312 L 0.808594 13.097656 L 1.460938 13.097656 L 1.460938 13.769531 L 2.210938 13.769531 L 2.210938 13.097656 L 13.109375 13.097656 L 12.160156 13.976562 L 12.660156 14.597656 L 14.660156 12.734375 Z M 12.660156 10.820312 "/>
</g>
</svg>
