<?xml version="1.0" encoding="UTF-8"?>
<svg xmlns="http://www.w3.org/2000/svg" xmlns:xlink="http://www.w3.org/1999/xlink" width="16px" height="px" viewBox="0 0 16 16" version="1.1">
<g id="surface1">
<path style=" stroke:none;fill-rule:nonzero;fill-opacity:1;" d="M 8 11.464844 C 6.078125 11.464844 4.535156 9.921875 4.535156 8 C 4.535156 6.078125 6.078125 4.535156 8 4.535156 C 9.921875 4.535156 11.464844 6.078125 11.464844 8 C 11.464844 9.921875 9.921875 11.464844 8 11.464844 Z M 8 5.28125 C 6.507812 5.28125 5.28125 6.507812 5.28125 8 C 5.28125 9.492188 6.507812 10.71875 8 10.71875 C 9.492188 10.71875 10.71875 9.492188 10.71875 8 C 10.71875 6.507812 9.492188 5.28125 8 5.28125 Z M 11.625 3.464844 L 11.359375 3.253906 C 10.667969 2.71875 9.8125 2.398438 8.960938 2.238281 L 8.640625 2.1875 L 8.640625 0 L 9.441406 0 L 9.441406 1.601562 C 10.1875 1.761719 10.933594 2.078125 11.574219 2.453125 L 12.691406 1.332031 L 13.226562 1.867188 Z M 16 7.359375 L 13.761719 7.359375 L 13.707031 7.039062 C 13.546875 6.1875 13.226562 5.386719 12.691406 4.640625 L 12.480469 4.375 L 14.078125 2.773438 L 14.613281 3.308594 L 13.492188 4.425781 C 13.921875 5.066406 14.1875 5.8125 14.347656 6.558594 L 15.945312 6.558594 L 15.945312 7.359375 Z M 14.132812 13.226562 L 12.535156 11.625 L 12.746094 11.359375 C 13.28125 10.667969 13.601562 9.8125 13.761719 8.960938 L 13.8125 8.640625 L 16 8.640625 L 16 9.441406 L 14.398438 9.441406 C 14.238281 10.1875 13.921875 10.933594 13.546875 11.574219 L 14.667969 12.691406 Z M 9.441406 16 L 8.640625 16 L 8.640625 13.761719 L 8.960938 13.707031 C 9.8125 13.546875 10.613281 13.226562 11.359375 12.691406 L 11.625 12.480469 L 13.171875 14.078125 L 12.640625 14.613281 L 11.519531 13.492188 C 10.878906 13.921875 10.132812 14.1875 9.386719 14.347656 L 9.386719 16 Z M 7.359375 16 L 6.558594 16 L 6.558594 14.398438 C 5.8125 14.238281 5.121094 13.921875 4.425781 13.546875 L 3.308594 14.667969 L 2.773438 14.132812 L 4.375 12.535156 L 4.640625 12.746094 C 5.332031 13.28125 6.1875 13.601562 7.039062 13.761719 L 7.359375 13.8125 Z M 1.867188 13.226562 L 1.332031 12.691406 L 2.453125 11.574219 C 2.027344 10.933594 1.761719 10.1875 1.601562 9.441406 L 0 9.441406 L 0 8.640625 L 2.238281 8.640625 L 2.292969 8.960938 C 2.453125 9.8125 2.773438 10.613281 3.308594 11.359375 L 3.519531 11.625 Z M 2.238281 7.359375 L 0 7.359375 L 0 6.558594 L 1.601562 6.558594 C 1.761719 5.8125 2.078125 5.121094 2.453125 4.425781 L 1.332031 3.359375 L 1.867188 2.828125 L 3.464844 4.425781 L 3.253906 4.640625 C 2.71875 5.332031 2.398438 6.1875 2.238281 7.039062 Z M 4.375 3.464844 L 2.773438 1.867188 L 3.308594 1.332031 L 4.425781 2.453125 C 5.066406 2.027344 5.8125 1.761719 6.558594 1.601562 L 6.558594 0 L 7.359375 0 L 7.359375 2.238281 L 7.039062 2.292969 C 6.1875 2.453125 5.332031 2.773438 4.640625 3.253906 Z M 4.375 3.464844 "/>
</g>
</svg>
