<?xml version="1.0" encoding="UTF-8"?>
<svg xmlns="http://www.w3.org/2000/svg" xmlns:xlink="http://www.w3.org/1999/xlink" width="16px" height="px" viewBox="0 0 16 17" version="1.1">
<defs>
<clipPath id="clip1">
  <path d="M 9 12 L 14 12 L 14 16.808594 L 9 16.808594 Z M 9 12 "/>
</clipPath>
<clipPath id="clip2">
  <path d="M 0 1 L 12 1 L 12 16.808594 L 0 16.808594 Z M 0 1 "/>
</clipPath>
<clipPath id="clip3">
  <path d="M 4 13 L 9 13 L 9 16.808594 L 4 16.808594 Z M 4 13 "/>
</clipPath>
</defs>
<g id="surface1">
<g clip-path="url(#clip1)" clip-rule="nonzero">
<path style="stroke-width:0.75;stroke-linecap:butt;stroke-linejoin:round;stroke:rgb(87.45098%,89.803922%,93.72549%);stroke-opacity:1;stroke-miterlimit:4;" d="M 13.589844 13.515625 L 12.640625 12.890625 C 12.640625 12.890625 12.339844 12.71875 11.988281 12.886719 C 11.636719 13.054688 10.253906 13.851562 10.253906 13.851562 C 10.253906 13.851562 10.003906 14.074219 10.023438 14.5 C 10.039062 14.929688 10.246094 15.652344 10.246094 15.652344 "/>
</g>
<path style="stroke-width:0.75;stroke-linecap:butt;stroke-linejoin:round;stroke:rgb(87.45098%,89.803922%,93.72549%);stroke-opacity:1;stroke-miterlimit:4;" d="M 15.664062 8.132812 L 14.542969 8.316406 C 14.542969 8.316406 14.199219 8.390625 14.058594 8.75 C 13.921875 9.109375 13.4375 10.632812 13.4375 10.632812 C 13.4375 10.632812 13.402344 10.964844 13.703125 11.269531 C 14.007812 11.574219 14.652344 11.964844 14.652344 11.964844 "/>
<path style="stroke-width:0.75;stroke-linecap:butt;stroke-linejoin:round;stroke:rgb(87.45098%,89.803922%,93.72549%);stroke-opacity:1;stroke-miterlimit:4;" d="M 13.050781 2.933594 L 12.433594 3.886719 C 12.433594 3.886719 12.261719 4.1875 12.441406 4.539062 C 12.617188 4.886719 13.429688 6.261719 13.429688 6.261719 C 13.429688 6.261719 13.65625 6.507812 14.085938 6.488281 C 14.511719 6.472656 15.234375 6.246094 15.234375 6.246094 "/>
<g clip-path="url(#clip2)" clip-rule="nonzero">
<path style="stroke-width:0.75;stroke-linecap:butt;stroke-linejoin:round;stroke:rgb(87.45098%,89.803922%,93.72549%);stroke-opacity:1;stroke-miterlimit:4;" d="M 6.363281 7.710938 L 11.148438 1.640625 C 11.1875 1.589844 11.148438 1.523438 11.085938 1.523438 L 6.234375 1.523438 C 6.207031 1.523438 6.183594 1.535156 6.167969 1.558594 L 0.351562 9.847656 C 0.316406 9.898438 0.355469 9.964844 0.417969 9.964844 L 3.503906 9.964844 C 3.558594 9.964844 3.597656 10.019531 3.574219 10.070312 L 0.957031 15.914062 C 0.921875 15.992188 1.023438 16.058594 1.085938 15.996094 L 5.210938 12.054688 L 9.492188 7.960938 C 9.542969 7.914062 9.507812 7.832031 9.4375 7.832031 L 6.429688 7.832031 C 6.367188 7.832031 6.328125 7.757812 6.367188 7.710938 Z M 6.363281 7.710938 "/>
</g>
<g clip-path="url(#clip3)" clip-rule="nonzero">
<path style="stroke-width:0.75;stroke-linecap:butt;stroke-linejoin:round;stroke:rgb(87.45098%,89.803922%,93.72549%);stroke-opacity:1;stroke-miterlimit:4;" d="M 8.410156 16.09375 L 8.132812 14.996094 C 8.132812 14.996094 8.023438 14.664062 7.652344 14.550781 C 7.28125 14.4375 5.71875 14.09375 5.71875 14.09375 C 5.71875 14.09375 5.382812 14.089844 5.109375 14.417969 C 4.835938 14.746094 4.496094 15.417969 4.496094 15.417969 "/>
</g>
</g>
</svg>
