<?xml version="1.0" encoding="UTF-8"?>
<svg xmlns="http://www.w3.org/2000/svg" xmlns:xlink="http://www.w3.org/1999/xlink" width="16px" height="px" viewBox="0 0 16 16" version="1.1">
<g id="surface1">
<path style="fill-rule:nonzero;fill:rgb(82.352941%,87.058824%,98.823529%);fill-opacity:1;stroke-width:0.744;stroke-linecap:butt;stroke-linejoin:miter;stroke:rgb(30.196078%,41.176471%,57.254902%);stroke-opacity:1;stroke-miterlimit:4;" d="M 13.890094 11.474016 L 4.333453 15.821672 C 4.227984 15.868547 4.157672 15.979875 4.151813 16.097062 C 4.151813 16.220109 4.222125 16.331437 4.327594 16.384172 L 13.884234 21.013078 C 13.972125 21.059953 14.071734 21.059953 14.153766 21.013078 L 23.710406 16.384172 C 23.821734 16.331437 23.886187 16.220109 23.886187 16.097062 C 23.886187 15.979875 23.815875 15.868547 23.704547 15.821672 L 14.147906 11.474016 C 14.065875 11.438859 13.972125 11.438859 13.890094 11.474016 Z M 13.890094 11.474016 " transform="matrix(0.666667,0,0,0.666667,-1.346,0.128)"/>
<path style="fill-rule:nonzero;fill:rgb(63.529412%,72.156863%,94.901961%);fill-opacity:1;stroke-width:0.744;stroke-linecap:butt;stroke-linejoin:miter;stroke:rgb(30.196078%,41.176471%,57.254902%);stroke-opacity:1;stroke-miterlimit:4;" d="M 13.890094 7.947469 L 4.333453 12.289266 C 4.227984 12.342 4.157672 12.447469 4.151813 12.570516 C 4.151813 12.687703 4.222125 12.799031 4.327594 12.851766 L 13.884234 17.486531 C 13.972125 17.527547 14.071734 17.527547 14.153766 17.486531 L 23.710406 12.851766 C 23.821734 12.799031 23.886187 12.687703 23.886187 12.570516 C 23.886187 12.447469 23.815875 12.342 23.704547 12.289266 L 14.147906 7.947469 C 14.065875 7.906453 13.972125 7.906453 13.890094 7.947469 Z M 13.890094 7.947469 " transform="matrix(0.666667,0,0,0.666667,-1.346,-0.478)"/>
<path style="fill-rule:nonzero;fill:rgb(48.235294%,56.470588%,87.843137%);fill-opacity:1;stroke-width:0.744;stroke-linecap:butt;stroke-linejoin:miter;stroke:rgb(30.196078%,41.176471%,57.254902%);stroke-opacity:1;stroke-miterlimit:4;" d="M 13.890094 4.415062 L 4.333453 8.756859 C 4.227984 8.809594 4.157672 8.920922 4.151813 9.038109 C 4.151813 9.161156 4.222125 9.272484 4.327594 9.325219 L 13.884234 13.954125 C 13.972125 13.995141 14.071734 13.995141 14.153766 13.954125 L 23.710406 9.325219 C 23.821734 9.272484 23.886187 9.161156 23.886187 9.038109 C 23.886187 8.920922 23.815875 8.809594 23.704547 8.756859 L 14.147906 4.415062 C 14.065875 4.379906 13.972125 4.379906 13.890094 4.415062 Z M 13.890094 4.415062 " transform="matrix(0.666667,0,0,0.666667,-1.346,-1.084)"/>
</g>
</svg>
