<?xml version="1.0" encoding="UTF-8"?>
<svg xmlns="http://www.w3.org/2000/svg" xmlns:xlink="http://www.w3.org/1999/xlink" width="16px" height="px" viewBox="0 0 16 14" version="1.1">
<g id="surface1">
<path style=" stroke:none;fill-rule:nonzero;fill-opacity:1;" d="M 16 3.828125 L 8 0 L 0 3.828125 L 8 7.652344 Z M 8 0.792969 L 14.355469 3.828125 L 8 6.859375 L 1.601562 3.828125 Z M 8 0.792969 "/>
<path style=" stroke:none;fill-rule:nonzero;fill-opacity:1;" d="M 1.417969 6.019531 L 2.058594 7.09375 C 2.058594 7.09375 7.816406 9.894531 8 9.894531 C 8.183594 9.894531 13.941406 7.09375 13.941406 7.09375 L 14.582031 6.019531 L 8 9.148438 Z M 1.417969 6.019531 "/>
<path style=" stroke:none;fill-rule:nonzero;fill-opacity:1;" d="M 3.472656 8.960938 L 4.113281 10.035156 C 4.113281 10.035156 7.910156 11.851562 8 11.851562 C 8.089844 11.851562 11.886719 10.035156 11.886719 10.035156 L 12.527344 8.960938 L 8 11.105469 Z M 5.441406 11.851562 L 6.078125 12.925781 C 6.078125 12.925781 7.863281 13.8125 8 13.8125 C 8.136719 13.8125 9.921875 12.925781 9.921875 12.925781 L 10.558594 11.851562 L 8 13.066406 Z M 5.441406 11.851562 "/>
</g>
</svg>
