<?xml version="1.0" encoding="UTF-8"?>
<svg xmlns="http://www.w3.org/2000/svg" xmlns:xlink="http://www.w3.org/1999/xlink" width="16px" height="px" viewBox="0 0 15 15" version="1.1">
<g id="surface1">
<path style=" stroke:none;fill-rule:nonzero;fill:rgb(0%,0%,0%);fill-opacity:1;" d="M 5.132812 7.046875 L 5.820312 7.046875 L 5.820312 6.621094 C 5.890625 6.042969 6.1875 5.523438 6.640625 5.1875 C 7.152344 4.800781 7.484375 4.203125 7.550781 3.542969 C 7.5625 2.640625 6.878906 1.898438 6.027344 1.890625 C 5.945312 1.886719 5.863281 1.894531 5.785156 1.90625 C 4.742188 1.855469 3.863281 2.703125 3.8125 3.804688 C 3.8125 3.824219 3.8125 3.84375 3.8125 3.867188 L 4.535156 3.867188 C 4.539062 3.15625 5.085938 2.585938 5.753906 2.589844 C 5.761719 2.589844 5.769531 2.589844 5.773438 2.589844 C 6.25 2.519531 6.691406 2.871094 6.757812 3.375 C 6.769531 3.4375 6.769531 3.503906 6.765625 3.570312 C 6.703125 4.054688 6.457031 4.488281 6.089844 4.78125 C 5.542969 5.199219 5.195312 5.847656 5.128906 6.554688 Z M 5.457031 9.085938 C 5.785156 9.085938 6.050781 8.804688 6.050781 8.460938 C 6.050781 8.113281 5.785156 7.832031 5.457031 7.832031 C 5.128906 7.832031 4.867188 8.113281 4.867188 8.460938 C 4.867188 8.804688 5.128906 9.085938 5.457031 9.085938 Z M 5.457031 9.085938 "/>
<path style=" stroke:none;fill-rule:nonzero;fill:rgb(0%,0%,0%);fill-opacity:1;" d="M 12.964844 3.53125 C 12.914062 3.53125 12.871094 3.542969 12.820312 3.542969 C 12.414062 3.542969 12.015625 3.667969 11.679688 3.882812 C 11.519531 3.960938 11.355469 4.023438 11.1875 4.070312 L 11.1875 0.00390625 L 0 0.00390625 L 0 11.367188 L 3.957031 11.367188 C 3.914062 11.484375 3.871094 11.589844 3.832031 11.679688 C 3.601562 12.03125 3.484375 12.433594 3.484375 12.851562 C 3.507812 14.042969 4.429688 14.992188 5.554688 14.992188 L 5.632812 14.992188 C 6.75 14.992188 7.671875 14.042969 7.703125 12.851562 C 7.703125 12.433594 7.578125 12.03125 7.367188 11.6875 C 7.316406 11.589844 7.273438 11.472656 7.230469 11.367188 L 11.1875 11.367188 L 11.1875 7.300781 C 11.355469 7.347656 11.519531 7.410156 11.667969 7.480469 C 12.015625 7.703125 12.414062 7.828125 12.8125 7.828125 C 12.921875 7.839844 13.023438 7.839844 13.132812 7.828125 C 13.675781 7.785156 14.164062 7.515625 14.511719 7.078125 C 14.867188 6.648438 15.035156 6.09375 14.992188 5.519531 C 14.910156 4.390625 14.019531 3.53125 12.964844 3.53125 Z M 12.886719 7.183594 L 12.820312 7.183594 C 12.617188 7.183594 12.421875 7.148438 12.226562 7.070312 L 11.984375 6.925781 C 11.636719 6.746094 11.273438 6.640625 10.890625 6.613281 L 10.5625 6.585938 L 10.5625 10.730469 L 6.46875 10.730469 L 6.527344 11.097656 C 6.578125 11.410156 6.679688 11.714844 6.824219 12.003906 L 6.96875 12.28125 C 7.042969 12.460938 7.078125 12.65625 7.078125 12.84375 C 7.042969 13.667969 6.433594 14.3125 5.664062 14.347656 L 5.597656 14.347656 C 4.804688 14.347656 4.144531 13.695312 4.109375 12.851562 C 4.109375 12.648438 4.144531 12.449219 4.226562 12.269531 L 4.363281 12.003906 C 4.507812 11.714844 4.609375 11.410156 4.660156 11.089844 L 4.710938 10.722656 L 0.617188 10.722656 L 0.617188 0.640625 L 10.570312 0.640625 L 10.570312 4.777344 L 10.898438 4.757812 C 11.28125 4.730469 11.644531 4.625 11.984375 4.445312 L 12.253906 4.292969 C 12.4375 4.222656 12.625 4.1875 12.828125 4.1875 C 12.863281 4.175781 12.90625 4.175781 12.945312 4.1875 C 13.726562 4.210938 14.332031 4.921875 14.308594 5.742188 C 14.292969 6.148438 14.128906 6.523438 13.851562 6.792969 C 13.589844 7.042969 13.25 7.183594 12.886719 7.183594 Z M 12.886719 7.183594 "/>
</g>
</svg>
