<svg width="30" height="27" viewBox="0 0 30 27" fill="none" xmlns="http://www.w3.org/2000/svg">
<path d="M16 1L2.12905 6.08601C1.71143 6.23914 1.68666 6.82044 2.08974 7.00854L16 13.5" stroke="black" stroke-width="1.75"/>
<path d="M5.5 10.5L2.01983 12.0467C1.62521 12.2221 1.62354 12.7816 2.0171 12.9593L16.5 19.5" stroke="black" stroke-width="1.75"/>
<path d="M5.5 17L2.21226 18.0959C1.78058 18.2398 1.74988 18.8387 2.16458 19.0259L16.5 25.5" stroke="black" stroke-width="1.75"/>
<path d="M20 5.5L23.2906 7.85044C23.422 7.9443 23.5 8.09583 23.5 8.25731V23.5" stroke="black" stroke-width="1.75"/>
<path d="M25.5 10L28.2774 11.8516C28.4164 11.9443 28.5 12.1004 28.5 12.2676V20.5" stroke="black" stroke-width="1.75"/>
</svg>
